kaaholmen_merd6_2018_11_28_17_00_01,mjpeg,,,,1.086,0.02,1.066,"['ffmpeg version 2023-10-09-git-37b5f4a1f6-full_build-www.gyan.dev Copyright (c) 2000-2023 the FFmpeg developers', '  built with gcc 13.2.0 (Rev2, Built by MSYS2 project)', '  configuration: --enable-gpl --enable-version3 --enable-static --pkg-config=pkgconf --disable-w32threads --disable-autodetect --enable-fontconfig --enable-iconv --enable-gnutls --enable-libxml2 --enable-gmp --enable-bzlib --enable-lzma --enable-libsnappy --enable-zlib --enable-librist --enable-libsrt --enable-libssh --enable-libzmq --enable-avisynth --enable-libbluray --enable-libcaca --enable-sdl2 --enable-libaribb24 --enable-libaribcaption --enable-libdav1d --enable-libdavs2 --enable-libuavs3d --enable-libzvbi --enable-librav1e --enable-libsvtav1 --enable-libwebp --enable-libx264 --enable-libx265 --enable-libxavs2 --enable-libxvid --enable-libaom --enable-libjxl --enable-libopenjpeg --enable-libvpx --enable-mediafoundation --enable-libass --enable-frei0r --enable-libfreetype --enable-libfribidi --enable-libharfbuzz --enable-liblensfun --enable-libvidstab --enable-libvmaf --enable-libzimg --enable-amf --enable-cuda-llvm --enable-cuvid --enable-ffnvcodec --enable-nvdec --enable-nvenc --enable-d3d11va --enable-dxva2 --enable-libvpl --enable-libshaderc --enable-vulkan --enable-libplacebo --enable-opencl --enable-libcdio --enable-libgme --enable-libmodplug --enable-libopenmpt --enable-libopencore-amrwb --enable-libmp3lame --enable-libshine --enable-libtheora --enable-libtwolame --enable-libvo-amrwbenc --enable-libcodec2 --enable-libilbc --enable-libgsm --enable-libopencore-amrnb --enable-libopus --enable-libspeex --enable-libvorbis --enable-ladspa --enable-libbs2b --enable-libflite --enable-libmysofa --enable-librubberband --enable-libsoxr --enable-chromaprint', '  libavutil      58. 27.100 / 58. 27.100', '  libavcodec     60. 30.101 / 60. 30.101', '  libavformat    60. 15.100 / 60. 15.100', '  libavdevice    60.  2.101 / 60.  2.101', '  libavfilter     9. 11.100 /  9. 11.100', '  libswscale      7.  4.100 /  7.  4.100', '  libswresample   4. 11.100 /  4. 11.100', '  libpostproc    57.  2.100 / 57.  2.100', ""Input #0, avi, from 'c:\\Users\\simen\\Documents\\GitHub\\codec_evaluator\\videos\\1_raw_videos\\kaaholmen_merd6_2018_11_28_17_00_01_raw.avi':"", '  Metadata:', '    software        : Lavf60.15.100', '  Duration: 00:00:15.00, start: 0.000000, bitrate: 622089 kb/s', '  Stream #0:0: Video: rawvideo (I420 / 0x30323449), yuv420p, 1920x1080, 623743 kb/s, 25 fps, 25 tbr, 25 tbn', '[rawvideo @ 000002294a791fc0] [IMGUTILS @ 0000006eca3feed0] Picture size 0x0 is invalid', '[in#1 @ 000002294a792ac0] Error opening input: Invalid argument', 'Error opening input file c:\\Users\\simen\\Documents\\GitHub\\codec_evaluator\\videos\\3_decoded_videos\\kaaholmen_merd6_2018_11_28_17_00_01_decoded_mjpeg.yuv.', 'Error opening input files: Invalid argument', '']","['ffmpeg version 2023-10-09-git-37b5f4a1f6-full_build-www.gyan.dev Copyright (c) 2000-2023 the FFmpeg developers', '  built with gcc 13.2.0 (Rev2, Built by MSYS2 project)', '  configuration: --enable-gpl --enable-version3 --enable-static --pkg-config=pkgconf --disable-w32threads --disable-autodetect --enable-fontconfig --enable-iconv --enable-gnutls --enable-libxml2 --enable-gmp --enable-bzlib --enable-lzma --enable-libsnappy --enable-zlib --enable-librist --enable-libsrt --enable-libssh --enable-libzmq --enable-avisynth --enable-libbluray --enable-libcaca --enable-sdl2 --enable-libaribb24 --enable-libaribcaption --enable-libdav1d --enable-libdavs2 --enable-libuavs3d --enable-libzvbi --enable-librav1e --enable-libsvtav1 --enable-libwebp --enable-libx264 --enable-libx265 --enable-libxavs2 --enable-libxvid --enable-libaom --enable-libjxl --enable-libopenjpeg --enable-libvpx --enable-mediafoundation --enable-libass --enable-frei0r --enable-libfreetype --enable-libfribidi --enable-libharfbuzz --enable-liblensfun --enable-libvidstab --enable-libvmaf --enable-libzimg --enable-amf --enable-cuda-llvm --enable-cuvid --enable-ffnvcodec --enable-nvdec --enable-nvenc --enable-d3d11va --enable-dxva2 --enable-libvpl --enable-libshaderc --enable-vulkan --enable-libplacebo --enable-opencl --enable-libcdio --enable-libgme --enable-libmodplug --enable-libopenmpt --enable-libopencore-amrwb --enable-libmp3lame --enable-libshine --enable-libtheora --enable-libtwolame --enable-libvo-amrwbenc --enable-libcodec2 --enable-libilbc --enable-libgsm --enable-libopencore-amrnb --enable-libopus --enable-libspeex --enable-libvorbis --enable-ladspa --enable-libbs2b --enable-libflite --enable-libmysofa --enable-librubberband --enable-libsoxr --enable-chromaprint', '  libavutil      58. 27.100 / 58. 27.100', '  libavcodec     60. 30.101 / 60. 30.101', '  libavformat    60. 15.100 / 60. 15.100', '  libavdevice    60.  2.101 / 60.  2.101', '  libavfilter     9. 11.100 /  9. 11.100', '  libswscale      7.  4.100 /  7.  4.100', '  libswresample   4. 11.100 /  4. 11.100', '  libpostproc    57.  2.100 / 57.  2.100', ""Input #0, avi, from 'c:\\Users\\simen\\Documents\\GitHub\\codec_evaluator\\videos\\1_raw_videos\\kaaholmen_merd6_2018_11_28_17_00_01_raw.avi':"", '  Metadata:', '    software        : Lavf60.15.100', '  Duration: 00:00:15.00, start: 0.000000, bitrate: 622089 kb/s', '  Stream #0:0: Video: rawvideo (I420 / 0x30323449), yuv420p, 1920x1080, 623743 kb/s, 25 fps, 25 tbr, 25 tbn', '[rawvideo @ 00000187aabc1fc0] [IMGUTILS @ 0000008569fff270] Picture size 0x0 is invalid', '[in#1 @ 00000187aabc2ac0] Error opening input: Invalid argument', 'Error opening input file c:\\Users\\simen\\Documents\\GitHub\\codec_evaluator\\videos\\3_decoded_videos\\kaaholmen_merd6_2018_11_28_17_00_01_decoded_mjpeg.yuv.', 'Error opening input files: Invalid argument', '']","['ffmpeg version 2023-10-09-git-37b5f4a1f6-full_build-www.gyan.dev Copyright (c) 2000-2023 the FFmpeg developers', '  built with gcc 13.2.0 (Rev2, Built by MSYS2 project)', '  configuration: --enable-gpl --enable-version3 --enable-static --pkg-config=pkgconf --disable-w32threads --disable-autodetect --enable-fontconfig --enable-iconv --enable-gnutls --enable-libxml2 --enable-gmp --enable-bzlib --enable-lzma --enable-libsnappy --enable-zlib --enable-librist --enable-libsrt --enable-libssh --enable-libzmq --enable-avisynth --enable-libbluray --enable-libcaca --enable-sdl2 --enable-libaribb24 --enable-libaribcaption --enable-libdav1d --enable-libdavs2 --enable-libuavs3d --enable-libzvbi --enable-librav1e --enable-libsvtav1 --enable-libwebp --enable-libx264 --enable-libx265 --enable-libxavs2 --enable-libxvid --enable-libaom --enable-libjxl --enable-libopenjpeg --enable-libvpx --enable-mediafoundation --enable-libass --enable-frei0r --enable-libfreetype --enable-libfribidi --enable-libharfbuzz --enable-liblensfun --enable-libvidstab --enable-libvmaf --enable-libzimg --enable-amf --enable-cuda-llvm --enable-cuvid --enable-ffnvcodec --enable-nvdec --enable-nvenc --enable-d3d11va --enable-dxva2 --enable-libvpl --enable-libshaderc --enable-vulkan --enable-libplacebo --enable-opencl --enable-libcdio --enable-libgme --enable-libmodplug --enable-libopenmpt --enable-libopencore-amrwb --enable-libmp3lame --enable-libshine --enable-libtheora --enable-libtwolame --enable-libvo-amrwbenc --enable-libcodec2 --enable-libilbc --enable-libgsm --enable-libopencore-amrnb --enable-libopus --enable-libspeex --enable-libvorbis --enable-ladspa --enable-libbs2b --enable-libflite --enable-libmysofa --enable-librubberband --enable-libsoxr --enable-chromaprint', '  libavutil      58. 27.100 / 58. 27.100', '  libavcodec     60. 30.101 / 60. 30.101', '  libavformat    60. 15.100 / 60. 15.100', '  libavdevice    60.  2.101 / 60.  2.101', '  libavfilter     9. 11.100 /  9. 11.100', '  libswscale      7.  4.100 /  7.  4.100', '  libswresample   4. 11.100 /  4. 11.100', '  libpostproc    57.  2.100 / 57.  2.100', '[Parsed_libvmaf_0 @ 0000020b76f95080] The ""model_path"" option is deprecated: use model=\'path=...\'.', 'libvmaf ERROR could not read model from path: """"model_path=C""', '[Parsed_libvmaf_0 @ 0000020b76f95080] problem loading model file: ""model_path=C', '[AVFilterGraph @ 0000020b76f77500] Error initializing filters', 'Failed to set value \'libvmaf=""model_path=C:/Users/simen/Desktop/vmaf_float_v0.6.1.pkl""\' for option \'lavfi\': Invalid argument', 'Error parsing global options: Invalid argument', '']"
kaaholmen_merd6_2018_11_28_17_00_01,libx264,,,,1.086,0.017,1.0690000000000002,"['ffmpeg version 2023-10-09-git-37b5f4a1f6-full_build-www.gyan.dev Copyright (c) 2000-2023 the FFmpeg developers', '  built with gcc 13.2.0 (Rev2, Built by MSYS2 project)', '  configuration: --enable-gpl --enable-version3 --enable-static --pkg-config=pkgconf --disable-w32threads --disable-autodetect --enable-fontconfig --enable-iconv --enable-gnutls --enable-libxml2 --enable-gmp --enable-bzlib --enable-lzma --enable-libsnappy --enable-zlib --enable-librist --enable-libsrt --enable-libssh --enable-libzmq --enable-avisynth --enable-libbluray --enable-libcaca --enable-sdl2 --enable-libaribb24 --enable-libaribcaption --enable-libdav1d --enable-libdavs2 --enable-libuavs3d --enable-libzvbi --enable-librav1e --enable-libsvtav1 --enable-libwebp --enable-libx264 --enable-libx265 --enable-libxavs2 --enable-libxvid --enable-libaom --enable-libjxl --enable-libopenjpeg --enable-libvpx --enable-mediafoundation --enable-libass --enable-frei0r --enable-libfreetype --enable-libfribidi --enable-libharfbuzz --enable-liblensfun --enable-libvidstab --enable-libvmaf --enable-libzimg --enable-amf --enable-cuda-llvm --enable-cuvid --enable-ffnvcodec --enable-nvdec --enable-nvenc --enable-d3d11va --enable-dxva2 --enable-libvpl --enable-libshaderc --enable-vulkan --enable-libplacebo --enable-opencl --enable-libcdio --enable-libgme --enable-libmodplug --enable-libopenmpt --enable-libopencore-amrwb --enable-libmp3lame --enable-libshine --enable-libtheora --enable-libtwolame --enable-libvo-amrwbenc --enable-libcodec2 --enable-libilbc --enable-libgsm --enable-libopencore-amrnb --enable-libopus --enable-libspeex --enable-libvorbis --enable-ladspa --enable-libbs2b --enable-libflite --enable-libmysofa --enable-librubberband --enable-libsoxr --enable-chromaprint', '  libavutil      58. 27.100 / 58. 27.100', '  libavcodec     60. 30.101 / 60. 30.101', '  libavformat    60. 15.100 / 60. 15.100', '  libavdevice    60.  2.101 / 60.  2.101', '  libavfilter     9. 11.100 /  9. 11.100', '  libswscale      7.  4.100 /  7.  4.100', '  libswresample   4. 11.100 /  4. 11.100', '  libpostproc    57.  2.100 / 57.  2.100', ""Input #0, avi, from 'c:\\Users\\simen\\Documents\\GitHub\\codec_evaluator\\videos\\1_raw_videos\\kaaholmen_merd6_2018_11_28_17_00_01_raw.avi':"", '  Metadata:', '    software        : Lavf60.15.100', '  Duration: 00:00:15.00, start: 0.000000, bitrate: 622089 kb/s', '  Stream #0:0: Video: rawvideo (I420 / 0x30323449), yuv420p, 1920x1080, 623743 kb/s, 25 fps, 25 tbr, 25 tbn', '[rawvideo @ 000001c2ef191fc0] [IMGUTILS @ 00000012fc5fee50] Picture size 0x0 is invalid', '[in#1 @ 000001c2ef192ac0] Error opening input: Invalid argument', 'Error opening input file c:\\Users\\simen\\Documents\\GitHub\\codec_evaluator\\videos\\3_decoded_videos\\kaaholmen_merd6_2018_11_28_17_00_01_decoded_libx264.yuv.', 'Error opening input files: Invalid argument', '']","['ffmpeg version 2023-10-09-git-37b5f4a1f6-full_build-www.gyan.dev Copyright (c) 2000-2023 the FFmpeg developers', '  built with gcc 13.2.0 (Rev2, Built by MSYS2 project)', '  configuration: --enable-gpl --enable-version3 --enable-static --pkg-config=pkgconf --disable-w32threads --disable-autodetect --enable-fontconfig --enable-iconv --enable-gnutls --enable-libxml2 --enable-gmp --enable-bzlib --enable-lzma --enable-libsnappy --enable-zlib --enable-librist --enable-libsrt --enable-libssh --enable-libzmq --enable-avisynth --enable-libbluray --enable-libcaca --enable-sdl2 --enable-libaribb24 --enable-libaribcaption --enable-libdav1d --enable-libdavs2 --enable-libuavs3d --enable-libzvbi --enable-librav1e --enable-libsvtav1 --enable-libwebp --enable-libx264 --enable-libx265 --enable-libxavs2 --enable-libxvid --enable-libaom --enable-libjxl --enable-libopenjpeg --enable-libvpx --enable-mediafoundation --enable-libass --enable-frei0r --enable-libfreetype --enable-libfribidi --enable-libharfbuzz --enable-liblensfun --enable-libvidstab --enable-libvmaf --enable-libzimg --enable-amf --enable-cuda-llvm --enable-cuvid --enable-ffnvcodec --enable-nvdec --enable-nvenc --enable-d3d11va --enable-dxva2 --enable-libvpl --enable-libshaderc --enable-vulkan --enable-libplacebo --enable-opencl --enable-libcdio --enable-libgme --enable-libmodplug --enable-libopenmpt --enable-libopencore-amrwb --enable-libmp3lame --enable-libshine --enable-libtheora --enable-libtwolame --enable-libvo-amrwbenc --enable-libcodec2 --enable-libilbc --enable-libgsm --enable-libopencore-amrnb --enable-libopus --enable-libspeex --enable-libvorbis --enable-ladspa --enable-libbs2b --enable-libflite --enable-libmysofa --enable-librubberband --enable-libsoxr --enable-chromaprint', '  libavutil      58. 27.100 / 58. 27.100', '  libavcodec     60. 30.101 / 60. 30.101', '  libavformat    60. 15.100 / 60. 15.100', '  libavdevice    60.  2.101 / 60.  2.101', '  libavfilter     9. 11.100 /  9. 11.100', '  libswscale      7.  4.100 /  7.  4.100', '  libswresample   4. 11.100 /  4. 11.100', '  libpostproc    57.  2.100 / 57.  2.100', ""Input #0, avi, from 'c:\\Users\\simen\\Documents\\GitHub\\codec_evaluator\\videos\\1_raw_videos\\kaaholmen_merd6_2018_11_28_17_00_01_raw.avi':"", '  Metadata:', '    software        : Lavf60.15.100', '  Duration: 00:00:15.00, start: 0.000000, bitrate: 622089 kb/s', '  Stream #0:0: Video: rawvideo (I420 / 0x30323449), yuv420p, 1920x1080, 623743 kb/s, 25 fps, 25 tbr, 25 tbn', '[rawvideo @ 000002392a001fc0] [IMGUTILS @ 0000004f17dff430] Picture size 0x0 is invalid', '[in#1 @ 000002392a002ac0] Error opening input: Invalid argument', 'Error opening input file c:\\Users\\simen\\Documents\\GitHub\\codec_evaluator\\videos\\3_decoded_videos\\kaaholmen_merd6_2018_11_28_17_00_01_decoded_libx264.yuv.', 'Error opening input files: Invalid argument', '']","['ffmpeg version 2023-10-09-git-37b5f4a1f6-full_build-www.gyan.dev Copyright (c) 2000-2023 the FFmpeg developers', '  built with gcc 13.2.0 (Rev2, Built by MSYS2 project)', '  configuration: --enable-gpl --enable-version3 --enable-static --pkg-config=pkgconf --disable-w32threads --disable-autodetect --enable-fontconfig --enable-iconv --enable-gnutls --enable-libxml2 --enable-gmp --enable-bzlib --enable-lzma --enable-libsnappy --enable-zlib --enable-librist --enable-libsrt --enable-libssh --enable-libzmq --enable-avisynth --enable-libbluray --enable-libcaca --enable-sdl2 --enable-libaribb24 --enable-libaribcaption --enable-libdav1d --enable-libdavs2 --enable-libuavs3d --enable-libzvbi --enable-librav1e --enable-libsvtav1 --enable-libwebp --enable-libx264 --enable-libx265 --enable-libxavs2 --enable-libxvid --enable-libaom --enable-libjxl --enable-libopenjpeg --enable-libvpx --enable-mediafoundation --enable-libass --enable-frei0r --enable-libfreetype --enable-libfribidi --enable-libharfbuzz --enable-liblensfun --enable-libvidstab --enable-libvmaf --enable-libzimg --enable-amf --enable-cuda-llvm --enable-cuvid --enable-ffnvcodec --enable-nvdec --enable-nvenc --enable-d3d11va --enable-dxva2 --enable-libvpl --enable-libshaderc --enable-vulkan --enable-libplacebo --enable-opencl --enable-libcdio --enable-libgme --enable-libmodplug --enable-libopenmpt --enable-libopencore-amrwb --enable-libmp3lame --enable-libshine --enable-libtheora --enable-libtwolame --enable-libvo-amrwbenc --enable-libcodec2 --enable-libilbc --enable-libgsm --enable-libopencore-amrnb --enable-libopus --enable-libspeex --enable-libvorbis --enable-ladspa --enable-libbs2b --enable-libflite --enable-libmysofa --enable-librubberband --enable-libsoxr --enable-chromaprint', '  libavutil      58. 27.100 / 58. 27.100', '  libavcodec     60. 30.101 / 60. 30.101', '  libavformat    60. 15.100 / 60. 15.100', '  libavdevice    60.  2.101 / 60.  2.101', '  libavfilter     9. 11.100 /  9. 11.100', '  libswscale      7.  4.100 /  7.  4.100', '  libswresample   4. 11.100 /  4. 11.100', '  libpostproc    57.  2.100 / 57.  2.100', '[Parsed_libvmaf_0 @ 000001daab0d5080] The ""model_path"" option is deprecated: use model=\'path=...\'.', 'libvmaf ERROR could not read model from path: """"model_path=C""', '[Parsed_libvmaf_0 @ 000001daab0d5080] problem loading model file: ""model_path=C', '[AVFilterGraph @ 000001daab0b7500] Error initializing filters', 'Failed to set value \'libvmaf=""model_path=C:/Users/simen/Desktop/vmaf_float_v0.6.1.pkl""\' for option \'lavfi\': Invalid argument', 'Error parsing global options: Invalid argument', '']"
pexels-kindel-media-8823187 (2160p),mjpeg,,,,2.352,0.025,2.327,"['ffmpeg version 2023-10-09-git-37b5f4a1f6-full_build-www.gyan.dev Copyright (c) 2000-2023 the FFmpeg developers', '  built with gcc 13.2.0 (Rev2, Built by MSYS2 project)', '  configuration: --enable-gpl --enable-version3 --enable-static --pkg-config=pkgconf --disable-w32threads --disable-autodetect --enable-fontconfig --enable-iconv --enable-gnutls --enable-libxml2 --enable-gmp --enable-bzlib --enable-lzma --enable-libsnappy --enable-zlib --enable-librist --enable-libsrt --enable-libssh --enable-libzmq --enable-avisynth --enable-libbluray --enable-libcaca --enable-sdl2 --enable-libaribb24 --enable-libaribcaption --enable-libdav1d --enable-libdavs2 --enable-libuavs3d --enable-libzvbi --enable-librav1e --enable-libsvtav1 --enable-libwebp --enable-libx264 --enable-libx265 --enable-libxavs2 --enable-libxvid --enable-libaom --enable-libjxl --enable-libopenjpeg --enable-libvpx --enable-mediafoundation --enable-libass --enable-frei0r --enable-libfreetype --enable-libfribidi --enable-libharfbuzz --enable-liblensfun --enable-libvidstab --enable-libvmaf --enable-libzimg --enable-amf --enable-cuda-llvm --enable-cuvid --enable-ffnvcodec --enable-nvdec --enable-nvenc --enable-d3d11va --enable-dxva2 --enable-libvpl --enable-libshaderc --enable-vulkan --enable-libplacebo --enable-opencl --enable-libcdio --enable-libgme --enable-libmodplug --enable-libopenmpt --enable-libopencore-amrwb --enable-libmp3lame --enable-libshine --enable-libtheora --enable-libtwolame --enable-libvo-amrwbenc --enable-libcodec2 --enable-libilbc --enable-libgsm --enable-libopencore-amrnb --enable-libopus --enable-libspeex --enable-libvorbis --enable-ladspa --enable-libbs2b --enable-libflite --enable-libmysofa --enable-librubberband --enable-libsoxr --enable-chromaprint', '  libavutil      58. 27.100 / 58. 27.100', '  libavcodec     60. 30.101 / 60. 30.101', '  libavformat    60. 15.100 / 60. 15.100', '  libavdevice    60.  2.101 / 60.  2.101', '  libavfilter     9. 11.100 /  9. 11.100', '  libswscale      7.  4.100 /  7.  4.100', '  libswresample   4. 11.100 /  4. 11.100', '  libpostproc    57.  2.100 / 57.  2.100', ""Input #0, avi, from 'c:\\Users\\simen\\Documents\\GitHub\\codec_evaluator\\videos\\1_raw_videos\\pexels-kindel-media-8823187 (2160p)_raw.avi':"", '  Metadata:', '    software        : Lavf60.15.100', '  Duration: 00:00:06.80, start: 0.000000, bitrate: 2971499 kb/s', '  Stream #0:0: Video: rawvideo (I420 / 0x30323449), yuv420p, 3840x2160, 2985984 kb/s, 30 fps, 30 tbr, 30 tbn', '  Stream #0:1: Audio: mp3 (U[0][0][0] / 0x0055), 48000 Hz, stereo, fltp, 128 kb/s', '[rawvideo @ 0000023455490080] [IMGUTILS @ 0000004fae3fef80] Picture size 0x0 is invalid', '[in#1 @ 0000023455477f80] Error opening input: Invalid argument', 'Error opening input file c:\\Users\\simen\\Documents\\GitHub\\codec_evaluator\\videos\\3_decoded_videos\\pexels-kindel-media-8823187 (2160p)_decoded_mjpeg.yuv.', 'Error opening input files: Invalid argument', '']","['ffmpeg version 2023-10-09-git-37b5f4a1f6-full_build-www.gyan.dev Copyright (c) 2000-2023 the FFmpeg developers', '  built with gcc 13.2.0 (Rev2, Built by MSYS2 project)', '  configuration: --enable-gpl --enable-version3 --enable-static --pkg-config=pkgconf --disable-w32threads --disable-autodetect --enable-fontconfig --enable-iconv --enable-gnutls --enable-libxml2 --enable-gmp --enable-bzlib --enable-lzma --enable-libsnappy --enable-zlib --enable-librist --enable-libsrt --enable-libssh --enable-libzmq --enable-avisynth --enable-libbluray --enable-libcaca --enable-sdl2 --enable-libaribb24 --enable-libaribcaption --enable-libdav1d --enable-libdavs2 --enable-libuavs3d --enable-libzvbi --enable-librav1e --enable-libsvtav1 --enable-libwebp --enable-libx264 --enable-libx265 --enable-libxavs2 --enable-libxvid --enable-libaom --enable-libjxl --enable-libopenjpeg --enable-libvpx --enable-mediafoundation --enable-libass --enable-frei0r --enable-libfreetype --enable-libfribidi --enable-libharfbuzz --enable-liblensfun --enable-libvidstab --enable-libvmaf --enable-libzimg --enable-amf --enable-cuda-llvm --enable-cuvid --enable-ffnvcodec --enable-nvdec --enable-nvenc --enable-d3d11va --enable-dxva2 --enable-libvpl --enable-libshaderc --enable-vulkan --enable-libplacebo --enable-opencl --enable-libcdio --enable-libgme --enable-libmodplug --enable-libopenmpt --enable-libopencore-amrwb --enable-libmp3lame --enable-libshine --enable-libtheora --enable-libtwolame --enable-libvo-amrwbenc --enable-libcodec2 --enable-libilbc --enable-libgsm --enable-libopencore-amrnb --enable-libopus --enable-libspeex --enable-libvorbis --enable-ladspa --enable-libbs2b --enable-libflite --enable-libmysofa --enable-librubberband --enable-libsoxr --enable-chromaprint', '  libavutil      58. 27.100 / 58. 27.100', '  libavcodec     60. 30.101 / 60. 30.101', '  libavformat    60. 15.100 / 60. 15.100', '  libavdevice    60.  2.101 / 60.  2.101', '  libavfilter     9. 11.100 /  9. 11.100', '  libswscale      7.  4.100 /  7.  4.100', '  libswresample   4. 11.100 /  4. 11.100', '  libpostproc    57.  2.100 / 57.  2.100', ""Input #0, avi, from 'c:\\Users\\simen\\Documents\\GitHub\\codec_evaluator\\videos\\1_raw_videos\\pexels-kindel-media-8823187 (2160p)_raw.avi':"", '  Metadata:', '    software        : Lavf60.15.100', '  Duration: 00:00:06.80, start: 0.000000, bitrate: 2971499 kb/s', '  Stream #0:0: Video: rawvideo (I420 / 0x30323449), yuv420p, 3840x2160, 2985984 kb/s, 30 fps, 30 tbr, 30 tbn', '  Stream #0:1: Audio: mp3 (U[0][0][0] / 0x0055), 48000 Hz, stereo, fltp, 128 kb/s', '[rawvideo @ 00000171144a0080] [IMGUTILS @ 0000002de65fef30] Picture size 0x0 is invalid', '[in#1 @ 0000017114487f80] Error opening input: Invalid argument', 'Error opening input file c:\\Users\\simen\\Documents\\GitHub\\codec_evaluator\\videos\\3_decoded_videos\\pexels-kindel-media-8823187 (2160p)_decoded_mjpeg.yuv.', 'Error opening input files: Invalid argument', '']","['ffmpeg version 2023-10-09-git-37b5f4a1f6-full_build-www.gyan.dev Copyright (c) 2000-2023 the FFmpeg developers', '  built with gcc 13.2.0 (Rev2, Built by MSYS2 project)', '  configuration: --enable-gpl --enable-version3 --enable-static --pkg-config=pkgconf --disable-w32threads --disable-autodetect --enable-fontconfig --enable-iconv --enable-gnutls --enable-libxml2 --enable-gmp --enable-bzlib --enable-lzma --enable-libsnappy --enable-zlib --enable-librist --enable-libsrt --enable-libssh --enable-libzmq --enable-avisynth --enable-libbluray --enable-libcaca --enable-sdl2 --enable-libaribb24 --enable-libaribcaption --enable-libdav1d --enable-libdavs2 --enable-libuavs3d --enable-libzvbi --enable-librav1e --enable-libsvtav1 --enable-libwebp --enable-libx264 --enable-libx265 --enable-libxavs2 --enable-libxvid --enable-libaom --enable-libjxl --enable-libopenjpeg --enable-libvpx --enable-mediafoundation --enable-libass --enable-frei0r --enable-libfreetype --enable-libfribidi --enable-libharfbuzz --enable-liblensfun --enable-libvidstab --enable-libvmaf --enable-libzimg --enable-amf --enable-cuda-llvm --enable-cuvid --enable-ffnvcodec --enable-nvdec --enable-nvenc --enable-d3d11va --enable-dxva2 --enable-libvpl --enable-libshaderc --enable-vulkan --enable-libplacebo --enable-opencl --enable-libcdio --enable-libgme --enable-libmodplug --enable-libopenmpt --enable-libopencore-amrwb --enable-libmp3lame --enable-libshine --enable-libtheora --enable-libtwolame --enable-libvo-amrwbenc --enable-libcodec2 --enable-libilbc --enable-libgsm --enable-libopencore-amrnb --enable-libopus --enable-libspeex --enable-libvorbis --enable-ladspa --enable-libbs2b --enable-libflite --enable-libmysofa --enable-librubberband --enable-libsoxr --enable-chromaprint', '  libavutil      58. 27.100 / 58. 27.100', '  libavcodec     60. 30.101 / 60. 30.101', '  libavformat    60. 15.100 / 60. 15.100', '  libavdevice    60.  2.101 / 60.  2.101', '  libavfilter     9. 11.100 /  9. 11.100', '  libswscale      7.  4.100 /  7.  4.100', '  libswresample   4. 11.100 /  4. 11.100', '  libpostproc    57.  2.100 / 57.  2.100', '[Parsed_libvmaf_0 @ 000002022b405080] The ""model_path"" option is deprecated: use model=\'path=...\'.', 'libvmaf ERROR could not read model from path: """"model_path=C""', '[Parsed_libvmaf_0 @ 000002022b405080] problem loading model file: ""model_path=C', '[AVFilterGraph @ 000002022b3e7500] Error initializing filters', 'Failed to set value \'libvmaf=""model_path=C:/Users/simen/Desktop/vmaf_float_v0.6.1.pkl""\' for option \'lavfi\': Invalid argument', 'Error parsing global options: Invalid argument', '']"
pexels-kindel-media-8823187 (2160p),libx264,,,,2.352,0.023,2.3289999999999997,"['ffmpeg version 2023-10-09-git-37b5f4a1f6-full_build-www.gyan.dev Copyright (c) 2000-2023 the FFmpeg developers', '  built with gcc 13.2.0 (Rev2, Built by MSYS2 project)', '  configuration: --enable-gpl --enable-version3 --enable-static --pkg-config=pkgconf --disable-w32threads --disable-autodetect --enable-fontconfig --enable-iconv --enable-gnutls --enable-libxml2 --enable-gmp --enable-bzlib --enable-lzma --enable-libsnappy --enable-zlib --enable-librist --enable-libsrt --enable-libssh --enable-libzmq --enable-avisynth --enable-libbluray --enable-libcaca --enable-sdl2 --enable-libaribb24 --enable-libaribcaption --enable-libdav1d --enable-libdavs2 --enable-libuavs3d --enable-libzvbi --enable-librav1e --enable-libsvtav1 --enable-libwebp --enable-libx264 --enable-libx265 --enable-libxavs2 --enable-libxvid --enable-libaom --enable-libjxl --enable-libopenjpeg --enable-libvpx --enable-mediafoundation --enable-libass --enable-frei0r --enable-libfreetype --enable-libfribidi --enable-libharfbuzz --enable-liblensfun --enable-libvidstab --enable-libvmaf --enable-libzimg --enable-amf --enable-cuda-llvm --enable-cuvid --enable-ffnvcodec --enable-nvdec --enable-nvenc --enable-d3d11va --enable-dxva2 --enable-libvpl --enable-libshaderc --enable-vulkan --enable-libplacebo --enable-opencl --enable-libcdio --enable-libgme --enable-libmodplug --enable-libopenmpt --enable-libopencore-amrwb --enable-libmp3lame --enable-libshine --enable-libtheora --enable-libtwolame --enable-libvo-amrwbenc --enable-libcodec2 --enable-libilbc --enable-libgsm --enable-libopencore-amrnb --enable-libopus --enable-libspeex --enable-libvorbis --enable-ladspa --enable-libbs2b --enable-libflite --enable-libmysofa --enable-librubberband --enable-libsoxr --enable-chromaprint', '  libavutil      58. 27.100 / 58. 27.100', '  libavcodec     60. 30.101 / 60. 30.101', '  libavformat    60. 15.100 / 60. 15.100', '  libavdevice    60.  2.101 / 60.  2.101', '  libavfilter     9. 11.100 /  9. 11.100', '  libswscale      7.  4.100 /  7.  4.100', '  libswresample   4. 11.100 /  4. 11.100', '  libpostproc    57.  2.100 / 57.  2.100', ""Input #0, avi, from 'c:\\Users\\simen\\Documents\\GitHub\\codec_evaluator\\videos\\1_raw_videos\\pexels-kindel-media-8823187 (2160p)_raw.avi':"", '  Metadata:', '    software        : Lavf60.15.100', '  Duration: 00:00:06.80, start: 0.000000, bitrate: 2971499 kb/s', '  Stream #0:0: Video: rawvideo (I420 / 0x30323449), yuv420p, 3840x2160, 2985984 kb/s, 30 fps, 30 tbr, 30 tbn', '  Stream #0:1: Audio: mp3 (U[0][0][0] / 0x0055), 48000 Hz, stereo, fltp, 128 kb/s', '[rawvideo @ 000001f65f990080] [IMGUTILS @ 00000095e73ff3d0] Picture size 0x0 is invalid', '[in#1 @ 000001f65f977f80] Error opening input: Invalid argument', 'Error opening input file c:\\Users\\simen\\Documents\\GitHub\\codec_evaluator\\videos\\3_decoded_videos\\pexels-kindel-media-8823187 (2160p)_decoded_libx264.yuv.', 'Error opening input files: Invalid argument', '']","['ffmpeg version 2023-10-09-git-37b5f4a1f6-full_build-www.gyan.dev Copyright (c) 2000-2023 the FFmpeg developers', '  built with gcc 13.2.0 (Rev2, Built by MSYS2 project)', '  configuration: --enable-gpl --enable-version3 --enable-static --pkg-config=pkgconf --disable-w32threads --disable-autodetect --enable-fontconfig --enable-iconv --enable-gnutls --enable-libxml2 --enable-gmp --enable-bzlib --enable-lzma --enable-libsnappy --enable-zlib --enable-librist --enable-libsrt --enable-libssh --enable-libzmq --enable-avisynth --enable-libbluray --enable-libcaca --enable-sdl2 --enable-libaribb24 --enable-libaribcaption --enable-libdav1d --enable-libdavs2 --enable-libuavs3d --enable-libzvbi --enable-librav1e --enable-libsvtav1 --enable-libwebp --enable-libx264 --enable-libx265 --enable-libxavs2 --enable-libxvid --enable-libaom --enable-libjxl --enable-libopenjpeg --enable-libvpx --enable-mediafoundation --enable-libass --enable-frei0r --enable-libfreetype --enable-libfribidi --enable-libharfbuzz --enable-liblensfun --enable-libvidstab --enable-libvmaf --enable-libzimg --enable-amf --enable-cuda-llvm --enable-cuvid --enable-ffnvcodec --enable-nvdec --enable-nvenc --enable-d3d11va --enable-dxva2 --enable-libvpl --enable-libshaderc --enable-vulkan --enable-libplacebo --enable-opencl --enable-libcdio --enable-libgme --enable-libmodplug --enable-libopenmpt --enable-libopencore-amrwb --enable-libmp3lame --enable-libshine --enable-libtheora --enable-libtwolame --enable-libvo-amrwbenc --enable-libcodec2 --enable-libilbc --enable-libgsm --enable-libopencore-amrnb --enable-libopus --enable-libspeex --enable-libvorbis --enable-ladspa --enable-libbs2b --enable-libflite --enable-libmysofa --enable-librubberband --enable-libsoxr --enable-chromaprint', '  libavutil      58. 27.100 / 58. 27.100', '  libavcodec     60. 30.101 / 60. 30.101', '  libavformat    60. 15.100 / 60. 15.100', '  libavdevice    60.  2.101 / 60.  2.101', '  libavfilter     9. 11.100 /  9. 11.100', '  libswscale      7.  4.100 /  7.  4.100', '  libswresample   4. 11.100 /  4. 11.100', '  libpostproc    57.  2.100 / 57.  2.100', ""Input #0, avi, from 'c:\\Users\\simen\\Documents\\GitHub\\codec_evaluator\\videos\\1_raw_videos\\pexels-kindel-media-8823187 (2160p)_raw.avi':"", '  Metadata:', '    software        : Lavf60.15.100', '  Duration: 00:00:06.80, start: 0.000000, bitrate: 2971499 kb/s', '  Stream #0:0: Video: rawvideo (I420 / 0x30323449), yuv420p, 3840x2160, 2985984 kb/s, 30 fps, 30 tbr, 30 tbn', '  Stream #0:1: Audio: mp3 (U[0][0][0] / 0x0055), 48000 Hz, stereo, fltp, 128 kb/s', '[rawvideo @ 000001e0f0b50080] [IMGUTILS @ 000000b8c8dff050] Picture size 0x0 is invalid', '[in#1 @ 000001e0f0b37f80] Error opening input: Invalid argument', 'Error opening input file c:\\Users\\simen\\Documents\\GitHub\\codec_evaluator\\videos\\3_decoded_videos\\pexels-kindel-media-8823187 (2160p)_decoded_libx264.yuv.', 'Error opening input files: Invalid argument', '']","['ffmpeg version 2023-10-09-git-37b5f4a1f6-full_build-www.gyan.dev Copyright (c) 2000-2023 the FFmpeg developers', '  built with gcc 13.2.0 (Rev2, Built by MSYS2 project)', '  configuration: --enable-gpl --enable-version3 --enable-static --pkg-config=pkgconf --disable-w32threads --disable-autodetect --enable-fontconfig --enable-iconv --enable-gnutls --enable-libxml2 --enable-gmp --enable-bzlib --enable-lzma --enable-libsnappy --enable-zlib --enable-librist --enable-libsrt --enable-libssh --enable-libzmq --enable-avisynth --enable-libbluray --enable-libcaca --enable-sdl2 --enable-libaribb24 --enable-libaribcaption --enable-libdav1d --enable-libdavs2 --enable-libuavs3d --enable-libzvbi --enable-librav1e --enable-libsvtav1 --enable-libwebp --enable-libx264 --enable-libx265 --enable-libxavs2 --enable-libxvid --enable-libaom --enable-libjxl --enable-libopenjpeg --enable-libvpx --enable-mediafoundation --enable-libass --enable-frei0r --enable-libfreetype --enable-libfribidi --enable-libharfbuzz --enable-liblensfun --enable-libvidstab --enable-libvmaf --enable-libzimg --enable-amf --enable-cuda-llvm --enable-cuvid --enable-ffnvcodec --enable-nvdec --enable-nvenc --enable-d3d11va --enable-dxva2 --enable-libvpl --enable-libshaderc --enable-vulkan --enable-libplacebo --enable-opencl --enable-libcdio --enable-libgme --enable-libmodplug --enable-libopenmpt --enable-libopencore-amrwb --enable-libmp3lame --enable-libshine --enable-libtheora --enable-libtwolame --enable-libvo-amrwbenc --enable-libcodec2 --enable-libilbc --enable-libgsm --enable-libopencore-amrnb --enable-libopus --enable-libspeex --enable-libvorbis --enable-ladspa --enable-libbs2b --enable-libflite --enable-libmysofa --enable-librubberband --enable-libsoxr --enable-chromaprint', '  libavutil      58. 27.100 / 58. 27.100', '  libavcodec     60. 30.101 / 60. 30.101', '  libavformat    60. 15.100 / 60. 15.100', '  libavdevice    60.  2.101 / 60.  2.101', '  libavfilter     9. 11.100 /  9. 11.100', '  libswscale      7.  4.100 /  7.  4.100', '  libswresample   4. 11.100 /  4. 11.100', '  libpostproc    57.  2.100 / 57.  2.100', '[Parsed_libvmaf_0 @ 000002ea91365080] The ""model_path"" option is deprecated: use model=\'path=...\'.', 'libvmaf ERROR could not read model from path: """"model_path=C""', '[Parsed_libvmaf_0 @ 000002ea91365080] problem loading model file: ""model_path=C', '[AVFilterGraph @ 000002ea91347500] Error initializing filters', 'Failed to set value \'libvmaf=""model_path=C:/Users/simen/Desktop/vmaf_float_v0.6.1.pkl""\' for option \'lavfi\': Invalid argument', 'Error parsing global options: Invalid argument', '']"
pexels-kindel-media-8823454 (2160p),mjpeg,,,,4.056,0.039,4.017,"['ffmpeg version 2023-10-09-git-37b5f4a1f6-full_build-www.gyan.dev Copyright (c) 2000-2023 the FFmpeg developers', '  built with gcc 13.2.0 (Rev2, Built by MSYS2 project)', '  configuration: --enable-gpl --enable-version3 --enable-static --pkg-config=pkgconf --disable-w32threads --disable-autodetect --enable-fontconfig --enable-iconv --enable-gnutls --enable-libxml2 --enable-gmp --enable-bzlib --enable-lzma --enable-libsnappy --enable-zlib --enable-librist --enable-libsrt --enable-libssh --enable-libzmq --enable-avisynth --enable-libbluray --enable-libcaca --enable-sdl2 --enable-libaribb24 --enable-libaribcaption --enable-libdav1d --enable-libdavs2 --enable-libuavs3d --enable-libzvbi --enable-librav1e --enable-libsvtav1 --enable-libwebp --enable-libx264 --enable-libx265 --enable-libxavs2 --enable-libxvid --enable-libaom --enable-libjxl --enable-libopenjpeg --enable-libvpx --enable-mediafoundation --enable-libass --enable-frei0r --enable-libfreetype --enable-libfribidi --enable-libharfbuzz --enable-liblensfun --enable-libvidstab --enable-libvmaf --enable-libzimg --enable-amf --enable-cuda-llvm --enable-cuvid --enable-ffnvcodec --enable-nvdec --enable-nvenc --enable-d3d11va --enable-dxva2 --enable-libvpl --enable-libshaderc --enable-vulkan --enable-libplacebo --enable-opencl --enable-libcdio --enable-libgme --enable-libmodplug --enable-libopenmpt --enable-libopencore-amrwb --enable-libmp3lame --enable-libshine --enable-libtheora --enable-libtwolame --enable-libvo-amrwbenc --enable-libcodec2 --enable-libilbc --enable-libgsm --enable-libopencore-amrnb --enable-libopus --enable-libspeex --enable-libvorbis --enable-ladspa --enable-libbs2b --enable-libflite --enable-libmysofa --enable-librubberband --enable-libsoxr --enable-chromaprint', '  libavutil      58. 27.100 / 58. 27.100', '  libavcodec     60. 30.101 / 60. 30.101', '  libavformat    60. 15.100 / 60. 15.100', '  libavdevice    60.  2.101 / 60.  2.101', '  libavfilter     9. 11.100 /  9. 11.100', '  libswscale      7.  4.100 /  7.  4.100', '  libswresample   4. 11.100 /  4. 11.100', '  libpostproc    57.  2.100 / 57.  2.100', ""Input #0, avi, from 'c:\\Users\\simen\\Documents\\GitHub\\codec_evaluator\\videos\\1_raw_videos\\pexels-kindel-media-8823454 (2160p)_raw.avi':"", '  Metadata:', '    software        : Lavf60.15.100', '  Duration: 00:00:11.71, start: 0.000000, bitrate: 2974572 kb/s', '  Stream #0:0: Video: rawvideo (I420 / 0x30323449), yuv420p, 3840x2160, 2985984 kb/s, 30 fps, 30 tbr, 30 tbn', '  Stream #0:1: Audio: mp3 (U[0][0][0] / 0x0055), 48000 Hz, stereo, fltp, 128 kb/s', '[rawvideo @ 000001cb8b24f4c0] [IMGUTILS @ 000000c9861fef50] Picture size 0x0 is invalid', '[in#1 @ 000001cb8b246f40] Error opening input: Invalid argument', 'Error opening input file c:\\Users\\simen\\Documents\\GitHub\\codec_evaluator\\videos\\3_decoded_videos\\pexels-kindel-media-8823454 (2160p)_decoded_mjpeg.yuv.', 'Error opening input files: Invalid argument', '']","['ffmpeg version 2023-10-09-git-37b5f4a1f6-full_build-www.gyan.dev Copyright (c) 2000-2023 the FFmpeg developers', '  built with gcc 13.2.0 (Rev2, Built by MSYS2 project)', '  configuration: --enable-gpl --enable-version3 --enable-static --pkg-config=pkgconf --disable-w32threads --disable-autodetect --enable-fontconfig --enable-iconv --enable-gnutls --enable-libxml2 --enable-gmp --enable-bzlib --enable-lzma --enable-libsnappy --enable-zlib --enable-librist --enable-libsrt --enable-libssh --enable-libzmq --enable-avisynth --enable-libbluray --enable-libcaca --enable-sdl2 --enable-libaribb24 --enable-libaribcaption --enable-libdav1d --enable-libdavs2 --enable-libuavs3d --enable-libzvbi --enable-librav1e --enable-libsvtav1 --enable-libwebp --enable-libx264 --enable-libx265 --enable-libxavs2 --enable-libxvid --enable-libaom --enable-libjxl --enable-libopenjpeg --enable-libvpx --enable-mediafoundation --enable-libass --enable-frei0r --enable-libfreetype --enable-libfribidi --enable-libharfbuzz --enable-liblensfun --enable-libvidstab --enable-libvmaf --enable-libzimg --enable-amf --enable-cuda-llvm --enable-cuvid --enable-ffnvcodec --enable-nvdec --enable-nvenc --enable-d3d11va --enable-dxva2 --enable-libvpl --enable-libshaderc --enable-vulkan --enable-libplacebo --enable-opencl --enable-libcdio --enable-libgme --enable-libmodplug --enable-libopenmpt --enable-libopencore-amrwb --enable-libmp3lame --enable-libshine --enable-libtheora --enable-libtwolame --enable-libvo-amrwbenc --enable-libcodec2 --enable-libilbc --enable-libgsm --enable-libopencore-amrnb --enable-libopus --enable-libspeex --enable-libvorbis --enable-ladspa --enable-libbs2b --enable-libflite --enable-libmysofa --enable-librubberband --enable-libsoxr --enable-chromaprint', '  libavutil      58. 27.100 / 58. 27.100', '  libavcodec     60. 30.101 / 60. 30.101', '  libavformat    60. 15.100 / 60. 15.100', '  libavdevice    60.  2.101 / 60.  2.101', '  libavfilter     9. 11.100 /  9. 11.100', '  libswscale      7.  4.100 /  7.  4.100', '  libswresample   4. 11.100 /  4. 11.100', '  libpostproc    57.  2.100 / 57.  2.100', ""Input #0, avi, from 'c:\\Users\\simen\\Documents\\GitHub\\codec_evaluator\\videos\\1_raw_videos\\pexels-kindel-media-8823454 (2160p)_raw.avi':"", '  Metadata:', '    software        : Lavf60.15.100', '  Duration: 00:00:11.71, start: 0.000000, bitrate: 2974572 kb/s', '  Stream #0:0: Video: rawvideo (I420 / 0x30323449), yuv420p, 3840x2160, 2985984 kb/s, 30 fps, 30 tbr, 30 tbn', '  Stream #0:1: Audio: mp3 (U[0][0][0] / 0x0055), 48000 Hz, stereo, fltp, 128 kb/s', '[rawvideo @ 000002fbedaff4c0] [IMGUTILS @ 000000fe48ffeed0] Picture size 0x0 is invalid', '[in#1 @ 000002fbedaf6f40] Error opening input: Invalid argument', 'Error opening input file c:\\Users\\simen\\Documents\\GitHub\\codec_evaluator\\videos\\3_decoded_videos\\pexels-kindel-media-8823454 (2160p)_decoded_mjpeg.yuv.', 'Error opening input files: Invalid argument', '']","['ffmpeg version 2023-10-09-git-37b5f4a1f6-full_build-www.gyan.dev Copyright (c) 2000-2023 the FFmpeg developers', '  built with gcc 13.2.0 (Rev2, Built by MSYS2 project)', '  configuration: --enable-gpl --enable-version3 --enable-static --pkg-config=pkgconf --disable-w32threads --disable-autodetect --enable-fontconfig --enable-iconv --enable-gnutls --enable-libxml2 --enable-gmp --enable-bzlib --enable-lzma --enable-libsnappy --enable-zlib --enable-librist --enable-libsrt --enable-libssh --enable-libzmq --enable-avisynth --enable-libbluray --enable-libcaca --enable-sdl2 --enable-libaribb24 --enable-libaribcaption --enable-libdav1d --enable-libdavs2 --enable-libuavs3d --enable-libzvbi --enable-librav1e --enable-libsvtav1 --enable-libwebp --enable-libx264 --enable-libx265 --enable-libxavs2 --enable-libxvid --enable-libaom --enable-libjxl --enable-libopenjpeg --enable-libvpx --enable-mediafoundation --enable-libass --enable-frei0r --enable-libfreetype --enable-libfribidi --enable-libharfbuzz --enable-liblensfun --enable-libvidstab --enable-libvmaf --enable-libzimg --enable-amf --enable-cuda-llvm --enable-cuvid --enable-ffnvcodec --enable-nvdec --enable-nvenc --enable-d3d11va --enable-dxva2 --enable-libvpl --enable-libshaderc --enable-vulkan --enable-libplacebo --enable-opencl --enable-libcdio --enable-libgme --enable-libmodplug --enable-libopenmpt --enable-libopencore-amrwb --enable-libmp3lame --enable-libshine --enable-libtheora --enable-libtwolame --enable-libvo-amrwbenc --enable-libcodec2 --enable-libilbc --enable-libgsm --enable-libopencore-amrnb --enable-libopus --enable-libspeex --enable-libvorbis --enable-ladspa --enable-libbs2b --enable-libflite --enable-libmysofa --enable-librubberband --enable-libsoxr --enable-chromaprint', '  libavutil      58. 27.100 / 58. 27.100', '  libavcodec     60. 30.101 / 60. 30.101', '  libavformat    60. 15.100 / 60. 15.100', '  libavdevice    60.  2.101 / 60.  2.101', '  libavfilter     9. 11.100 /  9. 11.100', '  libswscale      7.  4.100 /  7.  4.100', '  libswresample   4. 11.100 /  4. 11.100', '  libpostproc    57.  2.100 / 57.  2.100', '[Parsed_libvmaf_0 @ 000001f868f05080] The ""model_path"" option is deprecated: use model=\'path=...\'.', 'libvmaf ERROR could not read model from path: """"model_path=C""', '[Parsed_libvmaf_0 @ 000001f868f05080] problem loading model file: ""model_path=C', '[AVFilterGraph @ 000001f868ee7500] Error initializing filters', 'Failed to set value \'libvmaf=""model_path=C:/Users/simen/Desktop/vmaf_float_v0.6.1.pkl""\' for option \'lavfi\': Invalid argument', 'Error parsing global options: Invalid argument', '']"
pexels-kindel-media-8823454 (2160p),libx264,,,,4.056,0.037,4.019,"['ffmpeg version 2023-10-09-git-37b5f4a1f6-full_build-www.gyan.dev Copyright (c) 2000-2023 the FFmpeg developers', '  built with gcc 13.2.0 (Rev2, Built by MSYS2 project)', '  configuration: --enable-gpl --enable-version3 --enable-static --pkg-config=pkgconf --disable-w32threads --disable-autodetect --enable-fontconfig --enable-iconv --enable-gnutls --enable-libxml2 --enable-gmp --enable-bzlib --enable-lzma --enable-libsnappy --enable-zlib --enable-librist --enable-libsrt --enable-libssh --enable-libzmq --enable-avisynth --enable-libbluray --enable-libcaca --enable-sdl2 --enable-libaribb24 --enable-libaribcaption --enable-libdav1d --enable-libdavs2 --enable-libuavs3d --enable-libzvbi --enable-librav1e --enable-libsvtav1 --enable-libwebp --enable-libx264 --enable-libx265 --enable-libxavs2 --enable-libxvid --enable-libaom --enable-libjxl --enable-libopenjpeg --enable-libvpx --enable-mediafoundation --enable-libass --enable-frei0r --enable-libfreetype --enable-libfribidi --enable-libharfbuzz --enable-liblensfun --enable-libvidstab --enable-libvmaf --enable-libzimg --enable-amf --enable-cuda-llvm --enable-cuvid --enable-ffnvcodec --enable-nvdec --enable-nvenc --enable-d3d11va --enable-dxva2 --enable-libvpl --enable-libshaderc --enable-vulkan --enable-libplacebo --enable-opencl --enable-libcdio --enable-libgme --enable-libmodplug --enable-libopenmpt --enable-libopencore-amrwb --enable-libmp3lame --enable-libshine --enable-libtheora --enable-libtwolame --enable-libvo-amrwbenc --enable-libcodec2 --enable-libilbc --enable-libgsm --enable-libopencore-amrnb --enable-libopus --enable-libspeex --enable-libvorbis --enable-ladspa --enable-libbs2b --enable-libflite --enable-libmysofa --enable-librubberband --enable-libsoxr --enable-chromaprint', '  libavutil      58. 27.100 / 58. 27.100', '  libavcodec     60. 30.101 / 60. 30.101', '  libavformat    60. 15.100 / 60. 15.100', '  libavdevice    60.  2.101 / 60.  2.101', '  libavfilter     9. 11.100 /  9. 11.100', '  libswscale      7.  4.100 /  7.  4.100', '  libswresample   4. 11.100 /  4. 11.100', '  libpostproc    57.  2.100 / 57.  2.100', ""Input #0, avi, from 'c:\\Users\\simen\\Documents\\GitHub\\codec_evaluator\\videos\\1_raw_videos\\pexels-kindel-media-8823454 (2160p)_raw.avi':"", '  Metadata:', '    software        : Lavf60.15.100', '  Duration: 00:00:11.71, start: 0.000000, bitrate: 2974572 kb/s', '  Stream #0:0: Video: rawvideo (I420 / 0x30323449), yuv420p, 3840x2160, 2985984 kb/s, 30 fps, 30 tbr, 30 tbn', '  Stream #0:1: Audio: mp3 (U[0][0][0] / 0x0055), 48000 Hz, stereo, fltp, 128 kb/s', '[rawvideo @ 000001f8c228f4c0] [IMGUTILS @ 0000006426dff1f0] Picture size 0x0 is invalid', '[in#1 @ 000001f8c2286f40] Error opening input: Invalid argument', 'Error opening input file c:\\Users\\simen\\Documents\\GitHub\\codec_evaluator\\videos\\3_decoded_videos\\pexels-kindel-media-8823454 (2160p)_decoded_libx264.yuv.', 'Error opening input files: Invalid argument', '']","['ffmpeg version 2023-10-09-git-37b5f4a1f6-full_build-www.gyan.dev Copyright (c) 2000-2023 the FFmpeg developers', '  built with gcc 13.2.0 (Rev2, Built by MSYS2 project)', '  configuration: --enable-gpl --enable-version3 --enable-static --pkg-config=pkgconf --disable-w32threads --disable-autodetect --enable-fontconfig --enable-iconv --enable-gnutls --enable-libxml2 --enable-gmp --enable-bzlib --enable-lzma --enable-libsnappy --enable-zlib --enable-librist --enable-libsrt --enable-libssh --enable-libzmq --enable-avisynth --enable-libbluray --enable-libcaca --enable-sdl2 --enable-libaribb24 --enable-libaribcaption --enable-libdav1d --enable-libdavs2 --enable-libuavs3d --enable-libzvbi --enable-librav1e --enable-libsvtav1 --enable-libwebp --enable-libx264 --enable-libx265 --enable-libxavs2 --enable-libxvid --enable-libaom --enable-libjxl --enable-libopenjpeg --enable-libvpx --enable-mediafoundation --enable-libass --enable-frei0r --enable-libfreetype --enable-libfribidi --enable-libharfbuzz --enable-liblensfun --enable-libvidstab --enable-libvmaf --enable-libzimg --enable-amf --enable-cuda-llvm --enable-cuvid --enable-ffnvcodec --enable-nvdec --enable-nvenc --enable-d3d11va --enable-dxva2 --enable-libvpl --enable-libshaderc --enable-vulkan --enable-libplacebo --enable-opencl --enable-libcdio --enable-libgme --enable-libmodplug --enable-libopenmpt --enable-libopencore-amrwb --enable-libmp3lame --enable-libshine --enable-libtheora --enable-libtwolame --enable-libvo-amrwbenc --enable-libcodec2 --enable-libilbc --enable-libgsm --enable-libopencore-amrnb --enable-libopus --enable-libspeex --enable-libvorbis --enable-ladspa --enable-libbs2b --enable-libflite --enable-libmysofa --enable-librubberband --enable-libsoxr --enable-chromaprint', '  libavutil      58. 27.100 / 58. 27.100', '  libavcodec     60. 30.101 / 60. 30.101', '  libavformat    60. 15.100 / 60. 15.100', '  libavdevice    60.  2.101 / 60.  2.101', '  libavfilter     9. 11.100 /  9. 11.100', '  libswscale      7.  4.100 /  7.  4.100', '  libswresample   4. 11.100 /  4. 11.100', '  libpostproc    57.  2.100 / 57.  2.100', ""Input #0, avi, from 'c:\\Users\\simen\\Documents\\GitHub\\codec_evaluator\\videos\\1_raw_videos\\pexels-kindel-media-8823454 (2160p)_raw.avi':"", '  Metadata:', '    software        : Lavf60.15.100', '  Duration: 00:00:11.71, start: 0.000000, bitrate: 2974572 kb/s', '  Stream #0:0: Video: rawvideo (I420 / 0x30323449), yuv420p, 3840x2160, 2985984 kb/s, 30 fps, 30 tbr, 30 tbn', '  Stream #0:1: Audio: mp3 (U[0][0][0] / 0x0055), 48000 Hz, stereo, fltp, 128 kb/s', '[rawvideo @ 000002ab0bd1f4c0] [IMGUTILS @ 000000b0e4dfed80] Picture size 0x0 is invalid', '[in#1 @ 000002ab0bd16f40] Error opening input: Invalid argument', 'Error opening input file c:\\Users\\simen\\Documents\\GitHub\\codec_evaluator\\videos\\3_decoded_videos\\pexels-kindel-media-8823454 (2160p)_decoded_libx264.yuv.', 'Error opening input files: Invalid argument', '']","['ffmpeg version 2023-10-09-git-37b5f4a1f6-full_build-www.gyan.dev Copyright (c) 2000-2023 the FFmpeg developers', '  built with gcc 13.2.0 (Rev2, Built by MSYS2 project)', '  configuration: --enable-gpl --enable-version3 --enable-static --pkg-config=pkgconf --disable-w32threads --disable-autodetect --enable-fontconfig --enable-iconv --enable-gnutls --enable-libxml2 --enable-gmp --enable-bzlib --enable-lzma --enable-libsnappy --enable-zlib --enable-librist --enable-libsrt --enable-libssh --enable-libzmq --enable-avisynth --enable-libbluray --enable-libcaca --enable-sdl2 --enable-libaribb24 --enable-libaribcaption --enable-libdav1d --enable-libdavs2 --enable-libuavs3d --enable-libzvbi --enable-librav1e --enable-libsvtav1 --enable-libwebp --enable-libx264 --enable-libx265 --enable-libxavs2 --enable-libxvid --enable-libaom --enable-libjxl --enable-libopenjpeg --enable-libvpx --enable-mediafoundation --enable-libass --enable-frei0r --enable-libfreetype --enable-libfribidi --enable-libharfbuzz --enable-liblensfun --enable-libvidstab --enable-libvmaf --enable-libzimg --enable-amf --enable-cuda-llvm --enable-cuvid --enable-ffnvcodec --enable-nvdec --enable-nvenc --enable-d3d11va --enable-dxva2 --enable-libvpl --enable-libshaderc --enable-vulkan --enable-libplacebo --enable-opencl --enable-libcdio --enable-libgme --enable-libmodplug --enable-libopenmpt --enable-libopencore-amrwb --enable-libmp3lame --enable-libshine --enable-libtheora --enable-libtwolame --enable-libvo-amrwbenc --enable-libcodec2 --enable-libilbc --enable-libgsm --enable-libopencore-amrnb --enable-libopus --enable-libspeex --enable-libvorbis --enable-ladspa --enable-libbs2b --enable-libflite --enable-libmysofa --enable-librubberband --enable-libsoxr --enable-chromaprint', '  libavutil      58. 27.100 / 58. 27.100', '  libavcodec     60. 30.101 / 60. 30.101', '  libavformat    60. 15.100 / 60. 15.100', '  libavdevice    60.  2.101 / 60.  2.101', '  libavfilter     9. 11.100 /  9. 11.100', '  libswscale      7.  4.100 /  7.  4.100', '  libswresample   4. 11.100 /  4. 11.100', '  libpostproc    57.  2.100 / 57.  2.100', '[Parsed_libvmaf_0 @ 0000025b63255080] The ""model_path"" option is deprecated: use model=\'path=...\'.', 'libvmaf ERROR could not read model from path: """"model_path=C""', '[Parsed_libvmaf_0 @ 0000025b63255080] problem loading model file: ""model_path=C', '[AVFilterGraph @ 0000025b63237500] Error initializing filters', 'Failed to set value \'libvmaf=""model_path=C:/Users/simen/Desktop/vmaf_float_v0.6.1.pkl""\' for option \'lavfi\': Invalid argument', 'Error parsing global options: Invalid argument', '']"
pexels-taryn-elliott-5548361 (2160p),mjpeg,,,,2.897,0.035,2.8619999999999997,"['ffmpeg version 2023-10-09-git-37b5f4a1f6-full_build-www.gyan.dev Copyright (c) 2000-2023 the FFmpeg developers', '  built with gcc 13.2.0 (Rev2, Built by MSYS2 project)', '  configuration: --enable-gpl --enable-version3 --enable-static --pkg-config=pkgconf --disable-w32threads --disable-autodetect --enable-fontconfig --enable-iconv --enable-gnutls --enable-libxml2 --enable-gmp --enable-bzlib --enable-lzma --enable-libsnappy --enable-zlib --enable-librist --enable-libsrt --enable-libssh --enable-libzmq --enable-avisynth --enable-libbluray --enable-libcaca --enable-sdl2 --enable-libaribb24 --enable-libaribcaption --enable-libdav1d --enable-libdavs2 --enable-libuavs3d --enable-libzvbi --enable-librav1e --enable-libsvtav1 --enable-libwebp --enable-libx264 --enable-libx265 --enable-libxavs2 --enable-libxvid --enable-libaom --enable-libjxl --enable-libopenjpeg --enable-libvpx --enable-mediafoundation --enable-libass --enable-frei0r --enable-libfreetype --enable-libfribidi --enable-libharfbuzz --enable-liblensfun --enable-libvidstab --enable-libvmaf --enable-libzimg --enable-amf --enable-cuda-llvm --enable-cuvid --enable-ffnvcodec --enable-nvdec --enable-nvenc --enable-d3d11va --enable-dxva2 --enable-libvpl --enable-libshaderc --enable-vulkan --enable-libplacebo --enable-opencl --enable-libcdio --enable-libgme --enable-libmodplug --enable-libopenmpt --enable-libopencore-amrwb --enable-libmp3lame --enable-libshine --enable-libtheora --enable-libtwolame --enable-libvo-amrwbenc --enable-libcodec2 --enable-libilbc --enable-libgsm --enable-libopencore-amrnb --enable-libopus --enable-libspeex --enable-libvorbis --enable-ladspa --enable-libbs2b --enable-libflite --enable-libmysofa --enable-librubberband --enable-libsoxr --enable-chromaprint', '  libavutil      58. 27.100 / 58. 27.100', '  libavcodec     60. 30.101 / 60. 30.101', '  libavformat    60. 15.100 / 60. 15.100', '  libavdevice    60.  2.101 / 60.  2.101', '  libavfilter     9. 11.100 /  9. 11.100', '  libswscale      7.  4.100 /  7.  4.100', '  libswresample   4. 11.100 /  4. 11.100', '  libpostproc    57.  2.100 / 57.  2.100', ""Input #0, avi, from 'c:\\Users\\simen\\Documents\\GitHub\\codec_evaluator\\videos\\1_raw_videos\\pexels-taryn-elliott-5548361 (2160p)_raw.avi':"", '  Metadata:', '    software        : Lavf60.15.100', '  Duration: 00:00:10.00, start: 0.000000, bitrate: 2488328 kb/s', '  Stream #0:0: Video: rawvideo (I420 / 0x30323449), yuv420p, 3840x2160, 2498313 kb/s, 25 fps, 25 tbr, 25 tbn', '[rawvideo @ 000002feba8e1fc0] [IMGUTILS @ 000000fff2fff400] Picture size 0x0 is invalid', '[in#1 @ 000002feba8e2ac0] Error opening input: Invalid argument', 'Error opening input file c:\\Users\\simen\\Documents\\GitHub\\codec_evaluator\\videos\\3_decoded_videos\\pexels-taryn-elliott-5548361 (2160p)_decoded_mjpeg.yuv.', 'Error opening input files: Invalid argument', '']","['ffmpeg version 2023-10-09-git-37b5f4a1f6-full_build-www.gyan.dev Copyright (c) 2000-2023 the FFmpeg developers', '  built with gcc 13.2.0 (Rev2, Built by MSYS2 project)', '  configuration: --enable-gpl --enable-version3 --enable-static --pkg-config=pkgconf --disable-w32threads --disable-autodetect --enable-fontconfig --enable-iconv --enable-gnutls --enable-libxml2 --enable-gmp --enable-bzlib --enable-lzma --enable-libsnappy --enable-zlib --enable-librist --enable-libsrt --enable-libssh --enable-libzmq --enable-avisynth --enable-libbluray --enable-libcaca --enable-sdl2 --enable-libaribb24 --enable-libaribcaption --enable-libdav1d --enable-libdavs2 --enable-libuavs3d --enable-libzvbi --enable-librav1e --enable-libsvtav1 --enable-libwebp --enable-libx264 --enable-libx265 --enable-libxavs2 --enable-libxvid --enable-libaom --enable-libjxl --enable-libopenjpeg --enable-libvpx --enable-mediafoundation --enable-libass --enable-frei0r --enable-libfreetype --enable-libfribidi --enable-libharfbuzz --enable-liblensfun --enable-libvidstab --enable-libvmaf --enable-libzimg --enable-amf --enable-cuda-llvm --enable-cuvid --enable-ffnvcodec --enable-nvdec --enable-nvenc --enable-d3d11va --enable-dxva2 --enable-libvpl --enable-libshaderc --enable-vulkan --enable-libplacebo --enable-opencl --enable-libcdio --enable-libgme --enable-libmodplug --enable-libopenmpt --enable-libopencore-amrwb --enable-libmp3lame --enable-libshine --enable-libtheora --enable-libtwolame --enable-libvo-amrwbenc --enable-libcodec2 --enable-libilbc --enable-libgsm --enable-libopencore-amrnb --enable-libopus --enable-libspeex --enable-libvorbis --enable-ladspa --enable-libbs2b --enable-libflite --enable-libmysofa --enable-librubberband --enable-libsoxr --enable-chromaprint', '  libavutil      58. 27.100 / 58. 27.100', '  libavcodec     60. 30.101 / 60. 30.101', '  libavformat    60. 15.100 / 60. 15.100', '  libavdevice    60.  2.101 / 60.  2.101', '  libavfilter     9. 11.100 /  9. 11.100', '  libswscale      7.  4.100 /  7.  4.100', '  libswresample   4. 11.100 /  4. 11.100', '  libpostproc    57.  2.100 / 57.  2.100', ""Input #0, avi, from 'c:\\Users\\simen\\Documents\\GitHub\\codec_evaluator\\videos\\1_raw_videos\\pexels-taryn-elliott-5548361 (2160p)_raw.avi':"", '  Metadata:', '    software        : Lavf60.15.100', '  Duration: 00:00:10.00, start: 0.000000, bitrate: 2488328 kb/s', '  Stream #0:0: Video: rawvideo (I420 / 0x30323449), yuv420p, 3840x2160, 2498313 kb/s, 25 fps, 25 tbr, 25 tbn', '[rawvideo @ 000002b737f51fc0] [IMGUTILS @ 000000bffffff100] Picture size 0x0 is invalid', '[in#1 @ 000002b737f52ac0] Error opening input: Invalid argument', 'Error opening input file c:\\Users\\simen\\Documents\\GitHub\\codec_evaluator\\videos\\3_decoded_videos\\pexels-taryn-elliott-5548361 (2160p)_decoded_mjpeg.yuv.', 'Error opening input files: Invalid argument', '']","['ffmpeg version 2023-10-09-git-37b5f4a1f6-full_build-www.gyan.dev Copyright (c) 2000-2023 the FFmpeg developers', '  built with gcc 13.2.0 (Rev2, Built by MSYS2 project)', '  configuration: --enable-gpl --enable-version3 --enable-static --pkg-config=pkgconf --disable-w32threads --disable-autodetect --enable-fontconfig --enable-iconv --enable-gnutls --enable-libxml2 --enable-gmp --enable-bzlib --enable-lzma --enable-libsnappy --enable-zlib --enable-librist --enable-libsrt --enable-libssh --enable-libzmq --enable-avisynth --enable-libbluray --enable-libcaca --enable-sdl2 --enable-libaribb24 --enable-libaribcaption --enable-libdav1d --enable-libdavs2 --enable-libuavs3d --enable-libzvbi --enable-librav1e --enable-libsvtav1 --enable-libwebp --enable-libx264 --enable-libx265 --enable-libxavs2 --enable-libxvid --enable-libaom --enable-libjxl --enable-libopenjpeg --enable-libvpx --enable-mediafoundation --enable-libass --enable-frei0r --enable-libfreetype --enable-libfribidi --enable-libharfbuzz --enable-liblensfun --enable-libvidstab --enable-libvmaf --enable-libzimg --enable-amf --enable-cuda-llvm --enable-cuvid --enable-ffnvcodec --enable-nvdec --enable-nvenc --enable-d3d11va --enable-dxva2 --enable-libvpl --enable-libshaderc --enable-vulkan --enable-libplacebo --enable-opencl --enable-libcdio --enable-libgme --enable-libmodplug --enable-libopenmpt --enable-libopencore-amrwb --enable-libmp3lame --enable-libshine --enable-libtheora --enable-libtwolame --enable-libvo-amrwbenc --enable-libcodec2 --enable-libilbc --enable-libgsm --enable-libopencore-amrnb --enable-libopus --enable-libspeex --enable-libvorbis --enable-ladspa --enable-libbs2b --enable-libflite --enable-libmysofa --enable-librubberband --enable-libsoxr --enable-chromaprint', '  libavutil      58. 27.100 / 58. 27.100', '  libavcodec     60. 30.101 / 60. 30.101', '  libavformat    60. 15.100 / 60. 15.100', '  libavdevice    60.  2.101 / 60.  2.101', '  libavfilter     9. 11.100 /  9. 11.100', '  libswscale      7.  4.100 /  7.  4.100', '  libswresample   4. 11.100 /  4. 11.100', '  libpostproc    57.  2.100 / 57.  2.100', '[Parsed_libvmaf_0 @ 0000015aff325080] The ""model_path"" option is deprecated: use model=\'path=...\'.', 'libvmaf ERROR could not read model from path: """"model_path=C""', '[Parsed_libvmaf_0 @ 0000015aff325080] problem loading model file: ""model_path=C', '[AVFilterGraph @ 0000015aff307500] Error initializing filters', 'Failed to set value \'libvmaf=""model_path=C:/Users/simen/Desktop/vmaf_float_v0.6.1.pkl""\' for option \'lavfi\': Invalid argument', 'Error parsing global options: Invalid argument', '']"
pexels-taryn-elliott-5548361 (2160p),libx264,,,,2.897,0.021,2.876,"['ffmpeg version 2023-10-09-git-37b5f4a1f6-full_build-www.gyan.dev Copyright (c) 2000-2023 the FFmpeg developers', '  built with gcc 13.2.0 (Rev2, Built by MSYS2 project)', '  configuration: --enable-gpl --enable-version3 --enable-static --pkg-config=pkgconf --disable-w32threads --disable-autodetect --enable-fontconfig --enable-iconv --enable-gnutls --enable-libxml2 --enable-gmp --enable-bzlib --enable-lzma --enable-libsnappy --enable-zlib --enable-librist --enable-libsrt --enable-libssh --enable-libzmq --enable-avisynth --enable-libbluray --enable-libcaca --enable-sdl2 --enable-libaribb24 --enable-libaribcaption --enable-libdav1d --enable-libdavs2 --enable-libuavs3d --enable-libzvbi --enable-librav1e --enable-libsvtav1 --enable-libwebp --enable-libx264 --enable-libx265 --enable-libxavs2 --enable-libxvid --enable-libaom --enable-libjxl --enable-libopenjpeg --enable-libvpx --enable-mediafoundation --enable-libass --enable-frei0r --enable-libfreetype --enable-libfribidi --enable-libharfbuzz --enable-liblensfun --enable-libvidstab --enable-libvmaf --enable-libzimg --enable-amf --enable-cuda-llvm --enable-cuvid --enable-ffnvcodec --enable-nvdec --enable-nvenc --enable-d3d11va --enable-dxva2 --enable-libvpl --enable-libshaderc --enable-vulkan --enable-libplacebo --enable-opencl --enable-libcdio --enable-libgme --enable-libmodplug --enable-libopenmpt --enable-libopencore-amrwb --enable-libmp3lame --enable-libshine --enable-libtheora --enable-libtwolame --enable-libvo-amrwbenc --enable-libcodec2 --enable-libilbc --enable-libgsm --enable-libopencore-amrnb --enable-libopus --enable-libspeex --enable-libvorbis --enable-ladspa --enable-libbs2b --enable-libflite --enable-libmysofa --enable-librubberband --enable-libsoxr --enable-chromaprint', '  libavutil      58. 27.100 / 58. 27.100', '  libavcodec     60. 30.101 / 60. 30.101', '  libavformat    60. 15.100 / 60. 15.100', '  libavdevice    60.  2.101 / 60.  2.101', '  libavfilter     9. 11.100 /  9. 11.100', '  libswscale      7.  4.100 /  7.  4.100', '  libswresample   4. 11.100 /  4. 11.100', '  libpostproc    57.  2.100 / 57.  2.100', ""Input #0, avi, from 'c:\\Users\\simen\\Documents\\GitHub\\codec_evaluator\\videos\\1_raw_videos\\pexels-taryn-elliott-5548361 (2160p)_raw.avi':"", '  Metadata:', '    software        : Lavf60.15.100', '  Duration: 00:00:10.00, start: 0.000000, bitrate: 2488328 kb/s', '  Stream #0:0: Video: rawvideo (I420 / 0x30323449), yuv420p, 3840x2160, 2498313 kb/s, 25 fps, 25 tbr, 25 tbn', '[rawvideo @ 0000021dbb111fc0] [IMGUTILS @ 000000e2e41fec90] Picture size 0x0 is invalid', '[in#1 @ 0000021dbb112ac0] Error opening input: Invalid argument', 'Error opening input file c:\\Users\\simen\\Documents\\GitHub\\codec_evaluator\\videos\\3_decoded_videos\\pexels-taryn-elliott-5548361 (2160p)_decoded_libx264.yuv.', 'Error opening input files: Invalid argument', '']","['ffmpeg version 2023-10-09-git-37b5f4a1f6-full_build-www.gyan.dev Copyright (c) 2000-2023 the FFmpeg developers', '  built with gcc 13.2.0 (Rev2, Built by MSYS2 project)', '  configuration: --enable-gpl --enable-version3 --enable-static --pkg-config=pkgconf --disable-w32threads --disable-autodetect --enable-fontconfig --enable-iconv --enable-gnutls --enable-libxml2 --enable-gmp --enable-bzlib --enable-lzma --enable-libsnappy --enable-zlib --enable-librist --enable-libsrt --enable-libssh --enable-libzmq --enable-avisynth --enable-libbluray --enable-libcaca --enable-sdl2 --enable-libaribb24 --enable-libaribcaption --enable-libdav1d --enable-libdavs2 --enable-libuavs3d --enable-libzvbi --enable-librav1e --enable-libsvtav1 --enable-libwebp --enable-libx264 --enable-libx265 --enable-libxavs2 --enable-libxvid --enable-libaom --enable-libjxl --enable-libopenjpeg --enable-libvpx --enable-mediafoundation --enable-libass --enable-frei0r --enable-libfreetype --enable-libfribidi --enable-libharfbuzz --enable-liblensfun --enable-libvidstab --enable-libvmaf --enable-libzimg --enable-amf --enable-cuda-llvm --enable-cuvid --enable-ffnvcodec --enable-nvdec --enable-nvenc --enable-d3d11va --enable-dxva2 --enable-libvpl --enable-libshaderc --enable-vulkan --enable-libplacebo --enable-opencl --enable-libcdio --enable-libgme --enable-libmodplug --enable-libopenmpt --enable-libopencore-amrwb --enable-libmp3lame --enable-libshine --enable-libtheora --enable-libtwolame --enable-libvo-amrwbenc --enable-libcodec2 --enable-libilbc --enable-libgsm --enable-libopencore-amrnb --enable-libopus --enable-libspeex --enable-libvorbis --enable-ladspa --enable-libbs2b --enable-libflite --enable-libmysofa --enable-librubberband --enable-libsoxr --enable-chromaprint', '  libavutil      58. 27.100 / 58. 27.100', '  libavcodec     60. 30.101 / 60. 30.101', '  libavformat    60. 15.100 / 60. 15.100', '  libavdevice    60.  2.101 / 60.  2.101', '  libavfilter     9. 11.100 /  9. 11.100', '  libswscale      7.  4.100 /  7.  4.100', '  libswresample   4. 11.100 /  4. 11.100', '  libpostproc    57.  2.100 / 57.  2.100', ""Input #0, avi, from 'c:\\Users\\simen\\Documents\\GitHub\\codec_evaluator\\videos\\1_raw_videos\\pexels-taryn-elliott-5548361 (2160p)_raw.avi':"", '  Metadata:', '    software        : Lavf60.15.100', '  Duration: 00:00:10.00, start: 0.000000, bitrate: 2488328 kb/s', '  Stream #0:0: Video: rawvideo (I420 / 0x30323449), yuv420p, 3840x2160, 2498313 kb/s, 25 fps, 25 tbr, 25 tbn', '[rawvideo @ 0000020342c71fc0] [IMGUTILS @ 000000822c7fed20] Picture size 0x0 is invalid', '[in#1 @ 0000020342c72ac0] Error opening input: Invalid argument', 'Error opening input file c:\\Users\\simen\\Documents\\GitHub\\codec_evaluator\\videos\\3_decoded_videos\\pexels-taryn-elliott-5548361 (2160p)_decoded_libx264.yuv.', 'Error opening input files: Invalid argument', '']","['ffmpeg version 2023-10-09-git-37b5f4a1f6-full_build-www.gyan.dev Copyright (c) 2000-2023 the FFmpeg developers', '  built with gcc 13.2.0 (Rev2, Built by MSYS2 project)', '  configuration: --enable-gpl --enable-version3 --enable-static --pkg-config=pkgconf --disable-w32threads --disable-autodetect --enable-fontconfig --enable-iconv --enable-gnutls --enable-libxml2 --enable-gmp --enable-bzlib --enable-lzma --enable-libsnappy --enable-zlib --enable-librist --enable-libsrt --enable-libssh --enable-libzmq --enable-avisynth --enable-libbluray --enable-libcaca --enable-sdl2 --enable-libaribb24 --enable-libaribcaption --enable-libdav1d --enable-libdavs2 --enable-libuavs3d --enable-libzvbi --enable-librav1e --enable-libsvtav1 --enable-libwebp --enable-libx264 --enable-libx265 --enable-libxavs2 --enable-libxvid --enable-libaom --enable-libjxl --enable-libopenjpeg --enable-libvpx --enable-mediafoundation --enable-libass --enable-frei0r --enable-libfreetype --enable-libfribidi --enable-libharfbuzz --enable-liblensfun --enable-libvidstab --enable-libvmaf --enable-libzimg --enable-amf --enable-cuda-llvm --enable-cuvid --enable-ffnvcodec --enable-nvdec --enable-nvenc --enable-d3d11va --enable-dxva2 --enable-libvpl --enable-libshaderc --enable-vulkan --enable-libplacebo --enable-opencl --enable-libcdio --enable-libgme --enable-libmodplug --enable-libopenmpt --enable-libopencore-amrwb --enable-libmp3lame --enable-libshine --enable-libtheora --enable-libtwolame --enable-libvo-amrwbenc --enable-libcodec2 --enable-libilbc --enable-libgsm --enable-libopencore-amrnb --enable-libopus --enable-libspeex --enable-libvorbis --enable-ladspa --enable-libbs2b --enable-libflite --enable-libmysofa --enable-librubberband --enable-libsoxr --enable-chromaprint', '  libavutil      58. 27.100 / 58. 27.100', '  libavcodec     60. 30.101 / 60. 30.101', '  libavformat    60. 15.100 / 60. 15.100', '  libavdevice    60.  2.101 / 60.  2.101', '  libavfilter     9. 11.100 /  9. 11.100', '  libswscale      7.  4.100 /  7.  4.100', '  libswresample   4. 11.100 /  4. 11.100', '  libpostproc    57.  2.100 / 57.  2.100', '[Parsed_libvmaf_0 @ 0000017e16b75080] The ""model_path"" option is deprecated: use model=\'path=...\'.', 'libvmaf ERROR could not read model from path: """"model_path=C""', '[Parsed_libvmaf_0 @ 0000017e16b75080] problem loading model file: ""model_path=C', '[AVFilterGraph @ 0000017e16b57500] Error initializing filters', 'Failed to set value \'libvmaf=""model_path=C:/Users/simen/Desktop/vmaf_float_v0.6.1.pkl""\' for option \'lavfi\': Invalid argument', 'Error parsing global options: Invalid argument', '']"
